<svg xmlns="http://www.w3.org/2000/svg" viewBox="0 0 399.5 82.59"><defs><style>.a{fill:#e0e1e4;}.b{fill:#ec4b3c;}.c{fill:none;}</style></defs><title>Untitled-1</title><polygon class="a" points="44 14 44 25 12 37 44 49 44 61 0 42 0 32 44 14"/><path class="b" d="M82.5,104.5v-38h-13l-23,36v15h24v12h12v-14h7v-11Zm-12,1h-15l15-24Z" transform="translate(-0.5 -65.5)"/><path class="b" d="M112.5,66.5h-20v63h13v-24h11s17,0,17-19S121.5,66.5,112.5,66.5Zm3,29h-11v-19h7s10-1,10,9S115.5,95.5,115.5,95.5Z" transform="translate(-0.5 -65.5)"/><path class="b" d="M143.5,82.5v47h12v-30s8-14,24-4v-12s-13-8-24,6v-7Z" transform="translate(-0.5 -65.5)"/><path class="c" d="M209.5,79.5,207.9,82,210,90.88l5.48-7.38Z" transform="translate(-0.5 -65.5)"/><path class="b" d="M201.5,65.5c-11.6,0-21,14.55-21,32.5s9.4,32.5,21,32.5,21-14.55,21-32.5S213.1,65.5,201.5,65.5Zm9,33c0,12.7-3.81,23-8.5,23-2.95,0-5.55-4.07-7.08-10.26L210,90.88,207.9,82,193.71,103.6c-.14-1.64-.21-3.35-.21-5.1,0-12.7,3.81-23,8.5-23,2.19,0,4.19,2.24,5.69,5.92l.21.53,1.6-2.45,6,4L210,90.88A59.33,59.33,0,0,1,210.5,98.5Z" transform="translate(-0.5 -65.5)"/><path class="b" d="M207.5,81.5Z" transform="translate(-0.5 -65.5)"/><polyline class="b" points="193.21 38.1 190 43 192 49 194.42 45.74"/><polygon class="b" points="215 18 209.52 25.38 207.4 16.45 209 14 215 18"/><path class="a" d="M254,86.72a15,15,0,0,0-11-5.22c-9.66,0-17.5,10.52-17.5,23.5s7.84,23.5,17.5,23.5a14.78,14.78,0,0,0,10.5-4.7c4.25-4.28,7-11.11,7-18.8C260.5,97.62,258,91,254,86.72Zm-8.5,31.78c-4.42,0-8-5.93-8-13.25S241.08,92,245.5,92s8,5.93,8,13.25S249.92,118.5,245.5,118.5Z" transform="translate(-0.5 -65.5)"/><path class="a" d="M254,83h12v49s-1,23-36,14V135s28,11.6,23.5-11.2c-.52-2.66.35-4.62.5-6.8,1-15,0-21,0-21Z" transform="translate(-0.5 -65.5)"/><polygon class="a" points="345 0.5 312 70.5 319 72.5 354 1.5 345 0.5"/><polygon class="a" points="355.5 13 355.5 24 387.5 36 355.5 48 355.5 60 399.5 41 399.5 31 355.5 13"/><path class="a" d="M306.34,89c.54,4,.09,6-4.44,3.67a22.12,22.12,0,0,0-12.75-2.3c-2.61.29-4.8,1.27-5.6,3.94-.86,2.9,1.92,3.3,3.46,4.5a12.77,12.77,0,0,0,6.78,2.31c10.66,1.16,16.56,8.23,15.54,18.77-.45,4.74-4.24,7.65-7.82,9.21-9,3.92-18.38,2.06-27.46-.67-1.78-.53-2.67-9.18-1.19-10.09.87-.53,1.48.19,2.17.57,5.51,3,11.53,3,17.54,2.63,2.29-.13,4.63-.78,5-3.65.36-2.64-1.16-3.88-3.38-5.19-4.56-2.69-10-2.16-14.61-4.63-5.41-2.88-8.57-7.09-8.31-13a14,14,0,0,1,10-12.45c7.19-2,14.44-1.44,21.61.17C306.27,83.58,307,86.14,306.34,89Z" transform="translate(-0.5 -65.5)"/></svg>