<svg id="Layer_1" data-name="Layer 1" xmlns="http://www.w3.org/2000/svg" viewBox="0 0 485.97 179.73"><title>logo</title><path d="M244.3,161.2c19.7,0,39.4-.4,59.1.2a94.34,94.34,0,0,1,30,6.1c13.8,5.2,22.5,15.1,26.2,29.3a79.8,79.8,0,0,1-.3,42c-5.1,18.4-18.3,27.6-36.1,31.6-12,2.7-24.2,3.1-36.4,3-7.9,0-6.8-1.1-6.9,7.1-.1,18.1-.2,36.1.1,54.2.1,4.8-1.5,6-6,5.8-9.8-.3-19.5-.1-29.3,0a18.57,18.57,0,0,1-.5-3.4Q244.35,249.2,244.3,161.2Zm35.7,56v22.9c0,2.1.3,3.4,2.9,3.3,8.3-.3,16.6.6,24.8-1.1,8.5-1.8,14.5-6.3,16.5-15.1a41,41,0,0,0,1-12.1c-.8-14.3-6.3-20.5-20.4-22.9-7.3-1.2-14.6-.4-21.9-.7-3-.1-2.9,1.7-2.9,3.8Z" transform="translate(-7.69 -161.07)" style="fill:#e4523b"/><path d="M244.3,161.2q0,87.9-.1,175.9a21.49,21.49,0,0,0,.5,3.4c-10.2.1-20.5.1-30.7.3-3.3.1-3.1-2-3.1-4.2,0-9.9-.2-19.8.1-29.7.1-4-1.1-5.3-5.2-5.2-20,.2-40,0-60,.2-4.4.1-5.6-1.3-5.4-5.5a90.3,90.3,0,0,0,0-15.6c-1.3-9.8,2.2-17.8,7.4-25.7,17.2-26.5,35-52.7,51-79.9,6.6-11.2,20.33-14.1,26.5-14.1C231.75,161.07,238,161.2,244.3,161.2Zm-33.4,41.1c-1,1.1-1.4,1.5-1.6,1.8-13.4,20.9-26.7,41.7-40.1,62.5-2.2,3.4-.5,3.8,2.4,3.8,11.9,0,23.7-.1,35.6,0,3.1,0,3.8-1.2,3.8-4C210.9,245.4,210.9,224.3,210.9,202.3Z" transform="translate(-7.69 -161.07)" style="fill:#d1d8e0"/><path d="M39.7,263.6c6.1,2.2,11.4,4.1,16.6,6,24.4,8.7,48.8,17.5,73.3,26.1,2.9,1,4.2,2.6,4.1,5.7-.1,6.7,0,13.3,0,20,0,5.3-.5,5.7-5.6,3.8-17.4-6.8-34.7-13.6-52.1-20.5-21.4-8.4-42.8-16.9-64.3-25.1-2.9-1.1-4.1-2.5-4-5.6.2-7.2.2-14.3,0-21.5-.1-2.9.9-4.3,3.6-5.3,17.4-6.7,34.7-13.6,52-20.5l65.1-25.8c5.2-2.1,5.3-2.1,5.3,3.5,0,6.8-.2,13.7.1,20.5.1,3.4-1.2,4.7-4.3,5.8-28.9,10.2-57.7,20.7-86.5,31C42.2,262.1,41.4,262.7,39.7,263.6Z" transform="translate(-7.69 -161.07)" style="fill:#d1d8e0"/><path d="M461.2,263.2c-9.9-3.6-18.8-7-27.7-10.2-20.7-7.5-41.5-15-62.3-22.3-3-1-4.1-2.3-4.1-5.5.2-7.3.2-14.6,0-22-.1-3.7.8-3.9,4.1-2.6,31.1,12.5,62.4,24.8,93.6,37.1,8,3.2,16,6.4,24,9.3,3.3,1.2,4.4,3,4.4,6.5,0,7.3-.7,14.6.4,21.9.4,2.4-1.2,2.6-2.7,3.2q-29.25,11.55-58.3,23.1c-20.1,7.9-40.2,15.6-60.2,23.5-3.7,1.5-5.4,1.4-5.3-3.2.2-7.1.1-14.3,0-21.5,0-2.7.9-4,3.5-4.9q37.2-12.9,74.4-26.1C450.2,267.6,455.2,265.5,461.2,263.2Z" transform="translate(-7.69 -161.07)" style="fill:#d1d8e0"/></svg>